<svg xmlns="http://www.w3.org/2000/svg" width="43.047" height="44.683" viewBox="0 0 43.047 44.683">
    <g id="layer1" transform="translate(-46.78 -87.905)">
        <rect id="rect3740-8-3-2-5-1-9-6" width="4.729" height="2.79" rx="0.858" transform="translate(86.452 97.396) rotate(137.48)" fill="#fff" stroke="#000" stroke-linecap="round" stroke-linejoin="round" stroke-width="1"/>
        <ellipse id="path3699-4-3-4-0" cx="21.024" cy="19.21" rx="21.024" ry="19.21" transform="translate(47.28 93.668)" fill="#fff" stroke="#000" stroke-linecap="round" stroke-linejoin="round" stroke-width="1"/>
        <ellipse id="path3699-6-7-2-3-9" cx="18.885" cy="17.105" rx="18.885" ry="17.105" transform="translate(49.419 95.74)" fill="#1a1a1a" stroke="#000" stroke-linecap="round" stroke-linejoin="round" stroke-width="1"/>
        <rect id="rect3740-8-6-9-5-75" width="6.896" height="2.79" rx="0.59" transform="translate(65.057 88.405)" fill="#fff" stroke="#000" stroke-linecap="round" stroke-linejoin="round" stroke-width="1"/>
        <path id="path4784-93-9-1-9" d="M66.771,93.462V91.057" transform="translate(1.803)" fill="none" stroke="#000" stroke-width="1" fill-rule="evenodd"/>
        <g id="g1043-5-1-7-7" transform="translate(55.433 106.464)">
        <path id="path902-4-0-4-8" d="M7.7,35.235a1.379,1.379,0,0,1-.24-.282,1.371,1.371,0,0,1,.241-.281l.241-.24h3.313l.243.238a1.312,1.312,0,0,1,.243.282,1.319,1.319,0,0,1-.241.283l-.241.24H7.935Z" transform="translate(-6.742 -25.129)" fill="lime" stroke="#ececec" stroke-width="0.027"/>
        <path id="path890-74-7-3-5" d="M11.66,34.534l-.252-.253V30.962l.24-.241a1.794,1.794,0,0,1,.268-.241,1.982,1.982,0,0,1,.282.254l.253.254v3.285l-.226.232a2.968,2.968,0,0,1-.27.256C11.922,34.781,11.852,34.727,11.66,34.534Z" transform="translate(-6.742 -25.129)" fill="lime" stroke="#ececec" stroke-width="0.027"/>
        <path id="path880-4-5-1-3" d="M13.343,33.1a.521.521,0,0,1-.263-.692.463.463,0,0,1,.43-.28.4.4,0,0,1,.292.058.514.514,0,0,1,.1.807A.552.552,0,0,1,13.343,33.1Z" transform="translate(-6.742 -25.129)" fill="lime" stroke="#ececec" stroke-width="0.027"/>
        <path id="path876-3-8-46-3" d="M7.713,30.585a1.849,1.849,0,0,1-.257-.283,1.849,1.849,0,0,1,.257-.283l.257-.252h3.253l.257.252a1.849,1.849,0,0,1,.257.283,1.849,1.849,0,0,1-.257.283l-.257.252H7.97Z" transform="translate(-6.742 -25.129)" fill="lime" stroke="#ececec" stroke-width="0.027"/>
        <path id="path866-07-7-9-83" d="M7,29.869l-.253-.254V26.326L7,26.065l.261-.261.26.259.26.259v3.323l-.241.24a1.861,1.861,0,0,1-.268.24A2.046,2.046,0,0,1,7,29.869Z" transform="translate(-6.742 -25.129)" fill="lime" stroke="#ececec" stroke-width="0.027"/>
        <path id="path854-8-0-4-7" d="M13.316,28.434a.5.5,0,0,1-.278-.525.51.51,0,1,1,.77.5A.587.587,0,0,1,13.316,28.434Z" transform="translate(-6.742 -25.129)" fill="lime" stroke="#ececec" stroke-width="0.027"/>
        <path id="path850-6-4-2-9" d="M7.7,25.931a1.379,1.379,0,0,1-.24-.282,1.371,1.371,0,0,1,.241-.281l.241-.24h3.319l.241.24a1.346,1.346,0,0,1,.241.282,1.346,1.346,0,0,1-.241.282l-.241.24H7.935Z" transform="translate(-6.742 -25.129)" fill="lime" stroke="#ececec" stroke-width="0.027"/>
        <path id="path890-7-88-8-2-37" d="M24.224,34.534l-.252-.253V30.962l.24-.241a1.794,1.794,0,0,1,.268-.241,1.982,1.982,0,0,1,.282.254l.253.254v3.285l-.226.232a2.968,2.968,0,0,1-.27.256c-.033.018-.1-.036-.3-.229Z" transform="translate(-6.742 -25.129)" fill="lime" stroke="#ececec" stroke-width="0.027"/>
        <path id="path880-5-43-0-64-8" d="M25.907,33.1a.521.521,0,0,1-.263-.692.463.463,0,0,1,.43-.28.4.4,0,0,1,.292.058.514.514,0,0,1,.1.807A.552.552,0,0,1,25.907,33.1Z" transform="translate(-6.742 -25.129)" fill="lime" stroke="#ececec" stroke-width="0.027"/>
        <path id="path864-6-1-4-1-7" d="M24.212,29.883l-.24-.241V26.322l.26-.259.26-.259.261.261.261.261v3.291l-.254.253a2.052,2.052,0,0,1-.282.253,1.848,1.848,0,0,1-.267-.241Z" transform="translate(-6.742 -25.129)" fill="lime" stroke="#ececec" stroke-width="0.027"/>
        <path id="path854-2-4-2-2-4" d="M25.879,28.434a.5.5,0,0,1-.278-.525.51.51,0,1,1,.77.5A.587.587,0,0,1,25.879,28.434Z" transform="translate(-6.742 -25.129)" fill="lime" stroke="#ececec" stroke-width="0.027"/>
        <path id="path850-9-9-9-8-1" d="M20.26,25.931a1.375,1.375,0,0,1-.24-.282,1.371,1.371,0,0,1,.241-.281l.241-.24H23.82l.241.24a1.346,1.346,0,0,1,.241.282,1.346,1.346,0,0,1-.241.282l-.241.24H20.5Z" transform="translate(-6.742 -25.129)" fill="lime" stroke="#ececec" stroke-width="0.027"/>
        <path id="path892-2-2-6-8-9" d="M27.452,34.542l-.262-.257v-3.3l.251-.254a1.829,1.829,0,0,1,.282-.254,1.686,1.686,0,0,1,.271.241l.24.241v3.321l-.259.258-.259.258-.262-.257Z" transform="translate(-6.742 -25.129)" fill="lime" stroke="#ececec" stroke-width="0.027"/>
        <path id="path876-36-06-1-92-0" d="M28.16,30.585A1.844,1.844,0,0,1,27.9,30.3a1.849,1.849,0,0,1,.257-.283l.257-.252h3.253l.257.252a1.849,1.849,0,0,1,.257.283,1.849,1.849,0,0,1-.257.283l-.257.252H28.417Z" transform="translate(-6.742 -25.129)" fill="lime" stroke="#ececec" stroke-width="0.027"/>
        <path id="path866-0-8-0-8-98" d="M27.443,29.869l-.253-.254V26.326l.261-.261.261-.261.26.259.26.259v3.323l-.241.24a1.861,1.861,0,0,1-.268.24,2.046,2.046,0,0,1-.281-.254Z" transform="translate(-6.742 -25.129)" fill="lime" stroke="#ececec" stroke-width="0.027"/>
        <path id="path864-62-9-4-8-8" d="M32.1,29.883l-.24-.241V26.322l.26-.259.26-.259.261.261.261.261v3.291l-.254.253a2.052,2.052,0,0,1-.282.253,1.848,1.848,0,0,1-.267-.241Z" transform="translate(-6.742 -25.129)" fill="lime" stroke="#ececec" stroke-width="0.027"/>
        <g id="Groupe_1" data-name="Groupe 1">
            <path id="path850-1-26-2-8-5" d="M28.143,25.931a1.375,1.375,0,0,1-.24-.282,1.371,1.371,0,0,1,.241-.281l.241-.24H31.7l.241.24a1.346,1.346,0,0,1,.241.282,1.346,1.346,0,0,1-.241.282l-.241.24H28.383Z" transform="translate(-6.742 -25.129)" fill="lime" stroke="#ececec" stroke-width="0.027"/>
        </g>
        <path id="path892-6-7-6-2-6-8" d="M14.888,34.542l-.262-.257v-3.3l.251-.254a1.829,1.829,0,0,1,.282-.254,1.686,1.686,0,0,1,.271.241l.24.241v3.321l-.259.258-.259.258-.262-.257Z" transform="translate(-6.742 -25.129)" fill="lime" stroke="#ececec" stroke-width="0.027"/>
        <path id="path866-5-0-4-2-8-4" d="M14.879,29.869l-.253-.254V26.326l.261-.261.261-.261.26.259.26.259v3.323l-.241.24a1.861,1.861,0,0,1-.268.24,2.045,2.045,0,0,1-.281-.254Z" transform="translate(-6.742 -25.129)" fill="lime" stroke="#ececec" stroke-width="0.027"/>
        <path id="path864-6-2-9-0-3-3" d="M19.531,29.883l-.24-.241V26.322l.26-.259.26-.259.261.261.261.261v3.291l-.254.253a2.052,2.052,0,0,1-.282.253,1.848,1.848,0,0,1-.267-.241Z" transform="translate(-6.742 -25.129)" fill="lime" stroke="#ececec" stroke-width="0.027"/>
        <g id="Groupe_22" data-name="Groupe 22">
            <g id="Groupe_21" data-name="Groupe 21">
            <g id="Groupe_20" data-name="Groupe 20">
                <g id="Groupe_19" data-name="Groupe 19">
                <g id="Groupe_18" data-name="Groupe 18">
                    <g id="Groupe_17" data-name="Groupe 17">
                    <g id="Groupe_16" data-name="Groupe 16">
                        <g id="Groupe_15" data-name="Groupe 15">
                        <g id="Groupe_14" data-name="Groupe 14">
                            <g id="Groupe_13" data-name="Groupe 13">
                            <g id="Groupe_12" data-name="Groupe 12">
                                <g id="Groupe_11" data-name="Groupe 11">
                                <g id="Groupe_10" data-name="Groupe 10">
                                    <g id="Groupe_9" data-name="Groupe 9">
                                    <path id="path850-9-3-50-5-8-71" d="M15.579,25.931a1.379,1.379,0,0,1-.24-.282,1.371,1.371,0,0,1,.241-.281l.241-.24H19.14l.241.24a1.346,1.346,0,0,1,.241.282,1.346,1.346,0,0,1-.241.282l-.241.24H15.819Z" transform="translate(-6.742 -25.129)" fill="lime" stroke="#ececec" stroke-width="0.027"/>
                                    </g>
                                </g>
                                </g>
                            </g>
                            </g>
                        </g>
                        </g>
                    </g>
                    </g>
                </g>
                </g>
            </g>
            </g>
        </g>
        </g>
    </g>
</svg>
